# xmcd CD database file
#
# Track frame offsets:
#	150
#	11770
#	24815
#	40262
#	51372
#	62722
#	73197
#	85490
#	96155
#	106570
#	119107
#	129572
#	140467
#	151222
#	162825
#	173917
#
# Disc length: 2477 seconds
#
# Revision: 1
# Processed by: cddbd v1.5.2PL0 Copyright (c) Steve Scherf et al.
# Submitted via: CDex 1.51
#
DISCID=d709ab10
DTITLE=Enrico Domingo And His Big Band - Strictly Dancing - Mambo
DYEAR=1992
DGENRE=Salsa
TTITLE0=World Without Love
TTITLE1=Mambo Italiano
TTITLE2=Mambo Franco
TTITLE3=Enrico's Whistle
TTITLE4=Can't Take My Eyes Off Of You
TTITLE5=Jungle Mambo
TTITLE6=Mambo Inn
TTITLE7=Mambo Riviera
TTITLE8=Mambo Continental
TTITLE9=Ripples
TTITLE10=Kool Mambo
TTITLE11=Mambo Jumbo
TTITLE12=Unknown Track 13
TTITLE13=Unkonwn Track 14
TTITLE14=Unknown Track 15
TTITLE15=16
EXTD=YEAR: 1992
EXTT0=
EXTT1=
EXTT2=
EXTT3=
EXTT4=
EXTT5=
EXTT6=
EXTT7=
EXTT8=
EXTT9=
EXTT10=
EXTT11=
EXTT12=
EXTT13=
EXTT14=
EXTT15=
PLAYORDER=
